# Blender 4.3.2
# www.blender.org
mtllib pistol.mtl
o Cube
v 0.000000 0.600000 0.800000
v 0.000000 1.000000 1.000000
v 0.000000 0.600000 -1.000000
v 0.000000 1.000000 -0.800000
v 0.200000 0.600000 0.800000
v 0.200000 1.000000 1.000000
v 0.200000 0.600000 -1.000000
v 0.200000 1.000000 -0.800000
v 0.000000 0.600000 -0.600000
v 0.000000 1.000000 -0.600000
v 0.200000 0.600000 -0.600000
v 0.200000 1.000000 -0.600000
v 0.200000 0.000000 -1.000000
v 0.000000 0.000000 -1.000000
v 0.200000 0.000000 -0.600000
v 0.000000 0.000000 -0.600000
v 0.000000 0.600000 -0.400000
v 0.200000 1.000000 -0.400000
v 0.000000 1.000000 -0.400000
v 0.200000 0.600000 -0.400000
v 0.000000 0.600000 -0.300000
v 0.200000 1.000000 -0.300000
v 0.000000 1.000000 -0.300000
v 0.200000 0.600000 -0.300000
v 0.200000 0.800000 -1.000000
v 0.000000 0.800000 -0.600000
v 0.000000 0.400000 -0.400000
v 0.000000 0.400000 -0.300000
v 0.000000 0.800000 -1.000000
v 0.000000 0.800000 1.000000
v 0.000000 0.300000 -0.400000
v 0.000000 0.300000 -0.300000
v 0.200000 0.800000 -0.600000
v 0.000000 0.400000 -0.600000
v 0.200000 0.800000 1.000000
v 0.000000 0.300000 -0.600000
v 0.100000 0.600000 -0.300000
v 0.100000 0.600000 -0.400000
v 0.100000 0.400000 -0.300000
v 0.100000 0.400000 -0.400000
v 0.100000 0.300000 -0.300000
v 0.100000 0.300000 -0.400000
v 0.100000 0.300000 -0.600000
v 0.100000 0.400000 -0.600000
v 0.000000 0.800000 -0.400000
v 0.200000 0.800000 -0.400000
v 0.000000 0.800000 -0.300000
v 0.200000 0.800000 -0.300000
v 0.000000 0.800000 1.100000
v 0.000000 1.000000 1.100000
v 0.200000 1.000000 1.100000
v 0.200000 0.800000 1.100000
v 0.150000 1.100000 1.025000
v 0.050000 1.100000 1.025000
v 0.050000 1.100000 -0.325000
v 0.050000 1.100000 -0.375000
v 0.150000 1.100000 -0.375000
v 0.150000 1.100000 -0.325000
v 0.150000 1.100000 1.075000
v 0.050000 1.100000 1.075000
v -0.200000 0.600000 0.800000
v -0.200000 1.000000 1.000000
v -0.200000 0.600000 -1.000000
v -0.200000 1.000000 -0.800000
v -0.200000 0.600000 -0.600000
v -0.200000 1.000000 -0.600000
v -0.200000 0.000000 -1.000000
v -0.200000 0.000000 -0.600000
v -0.200000 1.000000 -0.400000
v -0.200000 0.600000 -0.400000
v -0.200000 1.000000 -0.300000
v -0.200000 0.600000 -0.300000
v -0.200000 0.800000 -1.000000
v -0.200000 0.800000 -0.600000
v -0.200000 0.800000 1.000000
v -0.100000 0.600000 -0.300000
v -0.100000 0.600000 -0.400000
v -0.100000 0.400000 -0.300000
v -0.100000 0.400000 -0.400000
v -0.100000 0.300000 -0.300000
v -0.100000 0.300000 -0.400000
v -0.100000 0.300000 -0.600000
v -0.100000 0.400000 -0.600000
v -0.200000 0.800000 -0.400000
v -0.200000 0.800000 -0.300000
v -0.200000 1.000000 1.100000
v -0.200000 0.800000 1.100000
v -0.150000 1.100000 1.025000
v -0.050000 1.100000 1.025000
v -0.050000 1.100000 -0.325000
v -0.050000 1.100000 -0.375000
v -0.150000 1.100000 -0.375000
v -0.150000 1.100000 -0.325000
v -0.150000 1.100000 1.075000
v -0.050000 1.100000 1.075000
vn -1.0000 -0.0000 -0.0000
vn -0.0000 0.7071 -0.7071
vn 1.0000 -0.0000 -0.0000
vn -0.0000 0.2425 -0.9701
vn -0.0000 -1.0000 -0.0000
vn -0.0000 1.0000 -0.0000
vn -0.0000 -0.0000 1.0000
vn -0.0000 -0.0000 -1.0000
vn -0.0000 -0.7071 0.7071
vn -0.8944 0.4472 -0.0000
vn 0.8944 0.4472 -0.0000
vn -0.0000 0.2425 0.9701
vt 0.500000 0.125000
vt 0.625000 0.125000
vt 0.625000 0.250000
vt 0.500000 0.250000
vt 0.625000 0.500000
vt 0.500000 0.500000
vt 0.500000 0.718750
vt 0.625000 0.718750
vt 0.625000 0.750000
vt 0.500000 0.750000
vt 0.625000 0.687500
vt 0.875000 0.687500
vt 0.125000 0.718750
vt 0.250000 0.718750
vt 0.375000 0.718750
vt 0.375000 0.750000
vt 0.125000 0.750000
vt 0.875000 0.718750
vt 0.875000 0.750000
vt 0.875000 0.500000
vt 0.875000 0.625000
vt 0.625000 0.625000
vt 0.375000 0.500000
vt 0.375000 0.625000
vt 0.500000 0.625000
vt 0.500000 0.062500
vt 0.625000 0.062500
vt 0.125000 0.500000
vt 0.125000 0.625000
vt 0.375000 0.125000
vt 0.375000 0.250000
vt 0.500000 0.031250
vt 0.625000 0.031250
vt 0.375000 0.687500
vt 0.250000 0.687500
vt 0.125000 0.687500
vt 0.500000 0.687500
vt 0.500000 0.000000
vt 0.625000 0.000000
vt 0.375000 0.000000
vt 0.375000 0.031250
vt 0.375000 0.062500
vt 0.500000 1.000000
vt 0.375000 1.000000
vt 0.625000 1.000000
s 0
usemtl Main
f 26/1/1 10/2/1 4/3/1 29/4/1
f 29/4/2 4/3/2 8/5/2 25/6/2
f 48/7/3 22/8/3 6/9/3 35/10/3
f 18/11/4 19/12/4 56/12/4 57/11/4
f 22/8/6 23/18/6 2/19/6 6/9/6
f 8/5/6 4/20/6 10/21/6 12/22/6
f 25/6/3 8/5/3 12/22/3 33/25/3
f 45/26/1 19/27/1 10/2/1 26/1/1
f 14/28/5 13/23/5 15/24/5 16/29/5
f 9/30/1 3/31/1 14/31/1 16/30/1
f 47/32/1 23/33/1 19/27/1 45/26/1
f 12/22/6 10/21/6 19/12/6 18/11/6
f 33/25/3 12/22/3 18/11/3 46/37/3
f 30/38/1 2/39/1 23/33/1 47/32/1
f 6/9/4 2/19/4 54/19/4 53/9/4
f 17/36/8 38/34/8 40/34/8 27/36/8
f 46/37/3 18/11/3 22/8/3 48/7/3
f 1/40/1 30/38/1 47/32/1 21/41/1
f 37/14/7 21/13/7 28/13/7 39/15/7
f 21/41/1 17/42/1 27/42/1 28/41/1
f 31/36/5 42/34/5 41/15/5 32/13/5
f 39/15/7 28/13/7 32/13/7 41/15/7
f 42/34/5 31/36/5 36/36/5 43/34/5
f 28/41/1 27/42/1 31/42/1 32/41/1
f 34/36/8 44/34/8 43/34/8 36/36/8
f 27/36/6 40/34/6 44/34/6 34/36/6
f 31/42/1 27/42/1 34/42/1 36/42/1
f 38/34/3 37/15/3 39/15/3 40/34/3
f 40/34/3 39/15/3 41/15/3 42/34/3
f 40/34/3 42/34/3 43/34/3 44/34/3
f 21/41/1 47/32/1 45/26/1 17/42/1
f 17/42/1 45/26/1 26/1/1 9/30/1
f 9/30/1 26/1/1 29/4/1 3/31/1
f 52/10/7 51/9/7 50/45/7 49/43/7
f 35/10/3 6/9/3 51/9/3 52/10/3
f 2/39/1 30/38/1 49/38/1 50/39/1
f 30/43/5 35/10/5 52/10/5 49/43/5
f 53/9/6 54/19/6 60/19/6 59/9/6
f 57/11/6 56/12/6 55/18/6 58/8/6
f 2/39/10 50/39/10 60/39/10 54/39/10
f 51/9/11 6/9/11 53/9/11 59/9/11
f 23/18/12 22/8/12 58/8/12 55/18/12
f 19/27/10 23/33/10 55/33/10 56/27/10
f 50/45/12 51/9/12 59/9/12 60/45/12
f 22/8/11 18/11/11 57/11/11 58/8/11
f 29/4/2 73/6/2 64/5/2 4/3/2
f 85/7/1 75/10/1 62/9/1 71/8/1
f 69/11/4 92/11/4 91/12/4 19/12/4
f 71/8/6 62/9/6 2/19/6 23/18/6
f 64/5/6 66/22/6 10/21/6 4/20/6
f 73/6/1 74/25/1 66/22/1 64/5/1
f 14/28/5 16/29/5 68/24/5 67/23/5
f 66/22/6 69/11/6 19/12/6 10/21/6
f 74/25/1 84/37/1 69/11/1 66/22/1
f 62/9/4 88/9/4 89/19/4 2/19/4
f 17/36/8 27/36/8 79/34/8 77/34/8
f 84/37/1 85/7/1 71/8/1 69/11/1
f 76/14/7 78/15/7 28/13/7 21/13/7
f 31/36/5 32/13/5 80/15/5 81/34/5
f 78/15/7 80/15/7 32/13/7 28/13/7
f 81/34/5 82/34/5 36/36/5 31/36/5
f 34/36/8 36/36/8 82/34/8 83/34/8
f 27/36/6 34/36/6 83/34/6 79/34/6
f 77/34/1 79/34/1 78/15/1 76/15/1
f 79/34/1 81/34/1 80/15/1 78/15/1
f 79/34/1 83/34/1 82/34/1 81/34/1
f 87/10/7 49/43/7 50/45/7 86/9/7
f 75/10/1 87/10/1 86/9/1 62/9/1
f 30/43/5 49/43/5 87/10/5 75/10/5
f 88/9/6 94/9/6 95/19/6 89/19/6
f 92/11/6 93/8/6 90/18/6 91/12/6
f 2/39/11 89/39/11 95/39/11 50/39/11
f 86/9/10 94/9/10 88/9/10 62/9/10
f 23/18/12 90/18/12 93/8/12 71/8/12
f 19/27/11 91/27/11 90/33/11 23/33/11
f 50/45/12 95/45/12 94/9/12 86/9/12
f 71/8/10 93/8/10 92/11/10 69/11/10
usemtl Accent
f 21/13/5 37/14/5 24/15/5 5/16/5 1/17/5
f 7/23/3 11/24/3 15/24/3 13/23/3
f 11/24/7 9/29/7 16/29/7 15/24/7
f 3/31/8 7/23/8 13/23/8 14/31/8
f 9/29/5 11/24/5 20/34/5 38/35/5 17/36/5
f 20/34/3 46/37/3 48/7/3 24/15/3
f 20/34/5 24/15/5 37/15/5 38/34/5
f 11/24/3 33/25/3 46/37/3 20/34/3
f 7/23/3 25/6/3 33/25/3 11/24/3
f 5/16/9 35/10/9 30/43/9 1/44/9
f 24/15/3 48/7/3 35/10/3 5/16/3
f 3/31/8 29/4/8 25/6/8 7/23/8
f 21/13/5 1/17/5 61/16/5 72/15/5 76/14/5
f 63/23/1 67/23/1 68/24/1 65/24/1
f 65/24/7 68/24/7 16/29/7 9/29/7
f 3/31/8 14/31/8 67/23/8 63/23/8
f 9/29/5 17/36/5 77/35/5 70/34/5 65/24/5
f 70/34/1 72/15/1 85/7/1 84/37/1
f 70/34/5 77/34/5 76/15/5 72/15/5
f 65/24/1 70/34/1 84/37/1 74/25/1
f 63/23/1 65/24/1 74/25/1 73/6/1
f 61/16/9 1/44/9 30/43/9 75/10/9
f 72/15/1 61/16/1 75/10/1 85/7/1
f 3/31/8 63/23/8 73/6/8 29/4/8
