# Blender 4.3.2
# www.blender.org
mtllib rifle.mtl
o Cube
v 0.000000 0.800000 2.000000
v 0.000000 1.000000 2.000000
v 0.000000 0.800000 -2.000000
v 0.000000 1.000000 -2.000000
v 0.100000 0.800000 2.000000
v 0.100000 1.000000 2.000000
v 0.100000 0.800000 -2.000000
v 0.100000 1.000000 -2.000000
v 0.000000 0.500000 -1.800000
v 0.000000 1.000000 -1.800000
v 0.100000 0.500000 -1.800000
v 0.100000 1.000000 -1.800000
v 0.000000 0.800000 -1.200000
v 0.100000 1.000000 -1.200000
v 0.000000 1.000000 -1.200000
v 0.100000 0.800000 -1.200000
v 0.000000 0.800000 -1.000000
v 0.100000 1.000000 -1.000000
v 0.000000 1.000000 -1.000000
v 0.100000 0.800000 -1.000000
v 0.100000 0.300000 -1.000000
v 0.100000 0.300000 -1.200000
v 0.000000 0.300000 -1.200000
v 0.000000 0.300000 -1.000000
v 0.100000 0.300000 -2.000000
v 0.000000 0.300000 -2.000000
v 0.100000 0.300000 -1.800000
v 0.000000 0.300000 -1.800000
v 0.000000 0.800000 -0.800000
v 0.100000 1.000000 -0.800000
v 0.000000 1.000000 -0.800000
v 0.100000 0.800000 -0.800000
v 0.000000 0.800000 -0.700000
v 0.100000 1.000000 -0.700000
v 0.000000 1.000000 -0.700000
v 0.100000 0.800000 -0.700000
v 0.000000 0.600000 -0.800000
v 0.000000 0.600000 -0.700000
v 0.000000 0.500000 -0.800000
v 0.000000 0.500000 -0.700000
v 0.000000 0.600000 -1.000000
v 0.000000 0.500000 -1.000000
v 0.000000 0.800000 1.900000
v 0.100000 1.000000 1.900000
v 0.000000 1.000000 1.900000
v 0.100000 0.800000 1.900000
v 0.070000 1.100000 1.930000
v 0.070000 1.100000 1.970000
v 0.030000 1.100000 1.970000
v 0.030000 1.100000 1.930000
v 0.030000 1.100000 -0.730000
v 0.030000 1.100000 -0.770000
v 0.070000 1.100000 -0.770000
v 0.070000 1.100000 -0.730000
v 0.050000 0.800000 -0.700000
v 0.050000 0.800000 -0.800000
v 0.050000 0.600000 -0.700000
v 0.050000 0.600000 -0.800000
v 0.050000 0.500000 -0.700000
v 0.050000 0.500000 -0.800000
v 0.050000 0.500000 -1.000000
v 0.050000 0.600000 -1.000000
v -0.100000 0.800000 2.000000
v -0.100000 1.000000 2.000000
v -0.100000 0.800000 -2.000000
v -0.100000 1.000000 -2.000000
v -0.100000 0.500000 -1.800000
v -0.100000 1.000000 -1.800000
v -0.100000 1.000000 -1.200000
v -0.100000 0.800000 -1.200000
v -0.100000 1.000000 -1.000000
v -0.100000 0.800000 -1.000000
v -0.100000 0.300000 -1.000000
v -0.100000 0.300000 -1.200000
v -0.100000 0.300000 -2.000000
v -0.100000 0.300000 -1.800000
v -0.100000 1.000000 -0.800000
v -0.100000 0.800000 -0.800000
v -0.100000 1.000000 -0.700000
v -0.100000 0.800000 -0.700000
v -0.100000 1.000000 1.900000
v -0.100000 0.800000 1.900000
v -0.070000 1.100000 1.930000
v -0.070000 1.100000 1.970000
v -0.030000 1.100000 1.970000
v -0.030000 1.100000 1.930000
v -0.030000 1.100000 -0.730000
v -0.030000 1.100000 -0.770000
v -0.070000 1.100000 -0.770000
v -0.070000 1.100000 -0.730000
v -0.050000 0.800000 -0.700000
v -0.050000 0.800000 -0.800000
v -0.050000 0.600000 -0.700000
v -0.050000 0.600000 -0.800000
v -0.050000 0.500000 -0.700000
v -0.050000 0.500000 -0.800000
v -0.050000 0.500000 -1.000000
v -0.050000 0.600000 -1.000000
vn -1.0000 -0.0000 -0.0000
vn -0.0000 -0.0000 -1.0000
vn 1.0000 -0.0000 -0.0000
vn -0.0000 -0.0000 1.0000
vn -0.0000 -1.0000 -0.0000
vn -0.9578 0.2873 -0.0000
vn -0.0000 1.0000 -0.0000
vn -0.0000 -0.8944 0.4472
vn -0.0000 0.2873 -0.9578
vn -0.0000 0.2873 0.9578
vn 0.9578 0.2873 -0.0000
vt 0.375000 0.237500
vt 0.625000 0.237500
vt 0.625000 0.250000
vt 0.375000 0.250000
vt 0.625000 0.500000
vt 0.375000 0.500000
vt 0.375000 0.742315
vt 0.625000 0.742315
vt 0.625000 0.750000
vt 0.375000 0.750000
vt 0.625000 1.000000
vt 0.375000 1.000000
vt 0.125000 0.742315
vt 0.125000 0.750000
vt 0.625000 0.007685
vt 0.625000 0.000000
vt 0.875000 0.500000
vt 0.875000 0.512500
vt 0.625000 0.512500
vt 0.375000 0.512500
vt 0.125000 0.512500
vt 0.375000 0.118750
vt 0.625000 0.118750
vt 0.375000 0.059375
vt 0.625000 0.059375
vt 0.875000 0.631250
vt 0.625000 0.631250
vt 0.375000 0.631250
vt 0.125000 0.631250
vt 0.375000 0.029688
vt 0.625000 0.029688
vt 0.875000 0.690625
vt 0.625000 0.690625
vt 0.375000 0.690625
vt 0.125000 0.690625
vt 0.125000 0.500000
vt 0.375000 0.014844
vt 0.625000 0.014844
vt 0.875000 0.720312
vt 0.625000 0.720312
vt 0.375000 0.720312
vt 0.250000 0.720312
vt 0.125000 0.720312
vt 0.375000 0.007685
vt 0.625000 0.735156
vt 0.375000 0.735156
vt 0.250000 0.735156
vt 0.125000 0.735156
vt 0.375000 0.000000
vt 0.875000 0.735156
vt 0.875000 0.742315
vt 0.875000 0.750000
s 0
usemtl Material.001
f 9/1/1 10/2/1 4/3/1 3/4/1
f 46/7/3 44/8/3 6/9/3 5/10/3
f 5/10/4 6/9/4 2/11/4 1/12/4
f 43/13/5 46/7/5 5/10/5 1/14/5
f 13/22/1 15/23/1 10/2/1 9/1/1
f 17/24/1 19/25/1 15/23/1 13/22/1
f 12/19/7 10/18/7 15/26/7 14/27/7
f 9/21/8 11/20/8 16/28/8 13/29/8
f 11/20/3 12/19/3 14/27/3 16/28/3
f 29/30/1 31/31/1 19/25/1 17/24/1
f 14/27/7 15/26/7 19/32/7 18/33/7
f 17/24/1 13/22/1 23/22/1 24/24/1
f 16/28/3 14/27/3 18/33/3 20/34/3
f 9/1/1 3/4/1 26/4/1 28/1/1
f 33/37/1 35/38/1 31/31/1 29/30/1
f 18/33/7 19/32/7 31/39/7 30/40/7
f 17/35/5 20/34/5 32/41/5 56/42/5 29/43/5
f 20/34/3 18/33/3 30/40/3 32/41/3
f 43/44/1 45/15/1 35/38/1 33/37/1
f 32/41/3 30/40/3 34/45/3 36/46/3
f 38/37/1 37/30/1 39/30/1 40/37/1
f 33/37/1 29/30/1 37/30/1 38/37/1
f 32/41/5 36/46/5 55/46/5 56/41/5
f 41/43/2 62/41/2 61/41/2 42/43/2
f 39/30/1 37/30/1 41/30/1 42/30/1
f 1/49/1 2/16/1 45/15/1 43/44/1
f 34/45/7 35/50/7 45/51/7 44/8/7
f 33/48/5 55/47/5 36/46/5 46/7/5 43/13/5
f 36/46/3 34/45/3 44/8/3 46/7/3
f 82/7/1 63/10/1 64/9/1 81/8/1
f 63/10/4 1/12/4 2/11/4 64/9/4
f 43/13/5 1/14/5 63/10/5 82/7/5
f 68/19/7 69/27/7 15/26/7 10/18/7
f 9/21/8 13/29/8 70/28/8 67/20/8
f 67/20/1 70/28/1 69/27/1 68/19/1
f 69/27/7 71/33/7 19/32/7 15/26/7
f 70/28/1 72/34/1 71/33/1 69/27/1
f 71/33/7 77/40/7 31/39/7 19/32/7
f 17/35/5 29/43/5 92/42/5 78/41/5 72/34/5
f 72/34/1 78/41/1 77/40/1 71/33/1
f 78/41/1 80/46/1 79/45/1 77/40/1
f 78/41/5 92/41/5 91/46/5 80/46/5
f 41/43/2 42/43/2 97/41/2 98/41/2
f 79/45/7 81/8/7 45/51/7 35/50/7
f 33/48/5 43/13/5 82/7/5 80/46/5 91/47/5
f 80/46/1 82/7/1 81/8/1 79/45/1
usemtl StockAccent
f 3/4/2 4/3/2 8/5/2 7/6/2
f 45/15/6 2/16/6 49/16/6 50/15/6
f 8/5/7 4/17/7 10/18/7 12/19/7
f 11/20/4 9/21/4 28/21/4 27/20/4
f 7/6/3 8/5/3 12/19/3 11/20/3
f 23/29/5 22/28/5 21/34/5 24/35/5
f 13/29/2 16/28/2 22/28/2 23/29/2
f 16/28/3 20/34/3 21/34/3 22/28/3
f 20/34/4 17/35/4 24/35/4 21/34/4
f 26/36/5 25/6/5 27/20/5 28/21/5
f 3/4/2 7/6/2 25/6/2 26/4/2
f 7/6/3 11/20/3 27/20/3 25/6/3
f 30/40/9 31/39/9 52/39/9 53/40/9
f 29/43/2 56/41/2 58/41/2 37/43/2
f 55/47/4 33/48/4 38/48/4 57/46/4
f 39/43/5 60/41/5 59/46/5 40/48/5
f 57/46/4 38/48/4 40/48/4 59/46/4
f 60/41/5 39/43/5 42/43/5 61/41/5
f 37/43/7 58/41/7 62/41/7 41/43/7
f 47/8/7 50/51/7 49/52/7 48/9/7
f 2/11/10 6/9/10 48/9/10 49/11/10
f 44/8/9 45/51/9 50/51/9 47/8/9
f 6/9/11 44/8/11 47/8/11 48/9/11
f 53/40/7 52/39/7 51/50/7 54/45/7
f 31/31/6 35/38/6 51/38/6 52/31/6
f 35/50/10 34/45/10 54/45/10 51/50/10
f 34/45/11 30/40/11 53/40/11 54/45/11
f 56/41/3 55/46/3 57/46/3 58/41/3
f 58/41/3 57/46/3 59/46/3 60/41/3
f 58/41/3 60/41/3 61/41/3 62/41/3
f 3/4/2 65/6/2 66/5/2 4/3/2
f 45/15/11 86/15/11 85/16/11 2/16/11
f 66/5/7 68/19/7 10/18/7 4/17/7
f 67/20/4 76/20/4 28/21/4 9/21/4
f 65/6/1 67/20/1 68/19/1 66/5/1
f 23/29/5 24/35/5 73/34/5 74/28/5
f 13/29/2 23/29/2 74/28/2 70/28/2
f 70/28/1 74/28/1 73/34/1 72/34/1
f 72/34/4 73/34/4 24/35/4 17/35/4
f 26/36/5 28/21/5 76/20/5 75/6/5
f 3/4/2 26/4/2 75/6/2 65/6/2
f 65/6/1 75/6/1 76/20/1 67/20/1
f 77/40/9 89/40/9 88/39/9 31/39/9
f 29/43/2 37/43/2 94/41/2 92/41/2
f 91/47/4 93/46/4 38/48/4 33/48/4
f 39/43/5 40/48/5 95/46/5 96/41/5
f 93/46/4 95/46/4 40/48/4 38/48/4
f 96/41/5 97/41/5 42/43/5 39/43/5
f 37/43/7 41/43/7 98/41/7 94/41/7
f 83/8/7 84/9/7 85/52/7 86/51/7
f 2/11/10 85/11/10 84/9/10 64/9/10
f 81/8/9 83/8/9 86/51/9 45/51/9
f 64/9/6 84/9/6 83/8/6 81/8/6
f 89/40/7 90/45/7 87/50/7 88/39/7
f 31/31/11 88/31/11 87/38/11 35/38/11
f 35/50/10 87/50/10 90/45/10 79/45/10
f 79/45/6 90/45/6 89/40/6 77/40/6
f 92/41/1 94/41/1 93/46/1 91/46/1
f 94/41/1 96/41/1 95/46/1 93/46/1
f 94/41/1 98/41/1 97/41/1 96/41/1
